{"title":"Angels with Dirty faces [DVDRip-XviD-Ita/Eng/Esp-Mp3-MultiSub][N","uid":6480548,"size":1487514600,"categoryP":"video","categoryS":"movies","magnet":"?xt=urn:btih:946c269785fe3a85e04935ec72952fa6b9ab9cdf&amp;dn=Angels+with+Dirty+faces+%5BDVDRip-XviD-Ita%2FEng%2FEsp-Mp3-MultiSub%5D%5BN&amp;tr=udp%3A%2F%2Ftracker.openbittorrent.com%3A80&amp;tr=udp%3A%2F%2Fopen.demonii.com%3A1337&amp;tr=udp%3A%2F%2Ftracker.coppersurfer.tk%3A6969&amp;tr=udp%3A%2F%2Fexodus.desync.com%3A6969","seeders":0,"leechers":1,"uploader":"maxneb","files":5,"time":1308497718,"description":"Angels with Dirty faces [DVDRip-XviD-Ita/Eng/Esp-Mp3-MultiSub][Nautilus-BT]\n\n\n\nGeneral\nComplete name                    : E:\\Gli angeli con la faccia sporca - Angels with Dirty faces [DVDRip-XviD-Ita-Eng-Esp-Mp3][RiP By MaX].avi\nFormat                           : AVI\nFormat/Info                      : Audio Video Interleave\nFile size                        : 1.38 GiB\nDuration                         : 1h 33mn\nOverall bit rate                 : 2 127 Kbps\nWriting application              : VirtualDubMod 1.5.10.2 (build 2540/release)\nWriting library                  : VirtualDubMod build 2540/release\n\nVideo\nID                               : 0\nFormat                           : MPEG-4 Visual\nFormat profile                   : Advanced Simple@L5\nFormat settings, BVOP            : Yes\nFormat settings, QPel            : No\nFormat settings, GMC             : No warppoints\nFormat settings, Matrix          : Default (H.263)\nCodec ID                         : XVID\nCodec ID/Hint                    : XviD\nDuration                         : 1h 33mn\nBit rate                         : 1 724 Kbps\nWidth                            : 640 pixels\nHeight                           : 480 pixels\nDisplay aspect ratio             : 4:3\nFrame rate                       : 25.000 fps\nColor space                      : YUV\nChroma subsampling               : 4:2:0\nBit depth                        : 8 bits\nScan type                        : Progressive\nBits/(Pixel*Frame)               : 0.224\nStream size                      : 1.12 GiB (81%)\nWriting library                  : XviD 1.2.1 (UTC 2008-12-04)\n\nAudio #1\nID                               : 1\nFormat                           : MPEG Audio\nFormat version                   : Version 1\nFormat profile                   : Layer 3\nCodec ID                         : 55\nCodec ID/Hint                    : MP3\nDuration                         : 1h 33mn\nBit rate mode                    : Constant\nBit rate                         : 128 Kbps\nChannel(s)                       : 1 channel\nSampling rate                    : 48.0 KHz\nStream size                      : 85.3 MiB (6%)\nAlignment                        : Aligned on interleaves\nInterleave, duration             : 40 ms (1.00 video frame)\nInterleave, preload duration     : 504 ms\nWriting library                  : LAME3.98r\nEncoding settings                : -m m -V 4 -q 2 -lowpass 20.5 -b 128\n\nAudio #2\nID                               : 2\nFormat                           : MPEG Audio\nFormat version                   : Version 1\nFormat profile                   : Layer 3\nCodec ID                         : 55\nCodec ID/Hint                    : MP3\nDuration                         : 1h 33mn\nBit rate mode                    : Constant\nBit rate                         : 128 Kbps\nChannel(s)                       : 1 channel\nSampling rate                    : 48.0 KHz\nStream size                      : 85.3 MiB (6%)\nAlignment                        : Aligned on interleaves\nInterleave, duration             : 40 ms (1.00 video frame)\nInterleave, preload duration     : 504 ms\nWriting library                  : LAME3.98r\nEncoding settings                : -m m -V 4 -q 2 -lowpass 20.5 -b 128\n\nAudio #3\nID                               : 3\nFormat                           : MPEG Audio\nFormat version                   : Version 1\nFormat profile                   : Layer 3\nCodec ID                         : 55\nCodec ID/Hint                    : MP3\nDuration                         : 1h 33mn\nBit rate mode                    : Constant\nBit rate                         : 128 Kbps\nChannel(s)                       : 1 channel\nSampling rate                    : 48.0 KHz\nStream size                      : 85.3 MiB (6%)\nAlignment                        : Aligned on interleaves\nInterleave, duration             : 40 ms (1.00 video frame)\nInterleave, preload duration     : 504 ms\nWriting library                  : LAME3.98r\nEncoding settings                : -m m -V 4 -q 2 -lowpass 20.5 -b 128","torrent":{"xt":"urn:btih:946c269785fe3a85e04935ec72952fa6b9ab9cdf","amp;dn":"Angels+with+Dirty+faces+%5BDVDRip-XviD-Ita%2FEng%2FEsp-Mp3-MultiSub%5D%5BN","amp;tr":["udp%3A%2F%2Ftracker.openbittorrent.com%3A80","udp%3A%2F%2Fopen.demonii.com%3A1337","udp%3A%2F%2Ftracker.coppersurfer.tk%3A6969","udp%3A%2F%2Fexodus.desync.com%3A6969"],"infoHash":"946c269785fe3a85e04935ec72952fa6b9ab9cdf","infoHashBuffer":{"type":"Buffer","data":[148,108,38,151,133,254,58,133,224,73,53,236,114,149,47,166,185,171,156,223]},"announce":[],"urlList":[]}}